<?xml version="1.0" encoding="utf-8"?>
<!-- Generator: Adobe Illustrator 24.2.3, SVG Export Plug-In . SVG Version: 6.00 Build 0)  -->
<svg version="1.1" id="Layer_1" xmlns="http://www.w3.org/2000/svg" xmlns:xlink="http://www.w3.org/1999/xlink" x="0px" y="0px"
	 viewBox="0 0 58 58" style="enable-background:new 0 0 58 58;" xml:space="preserve">
	<g fill="#a0a0a0">
	<path d="M43.16,10.09c-0.33,1.23-0.81,2.45-0.96,3.7c-0.43,3.68-2.5,5.54-5.75,5.01c-2.07-0.34-3.32-1.63-3.85-3.99
		c-1.32-5.84,1.34-11.07,7-13.8c4.65-2.24,10.7-0.68,14.32,3.68c6.48,7.81,3.9,19.32-5.44,24.23c-3.49,1.84-7.2,2.66-11.17,2.39
		c-3.26-0.22-5.92,2.02-6.96,6.1c-1.31,5.18-4.13,9.34-8.36,12.5c-3.04,2.27-6.27,4.3-9.44,6.4c-0.82,0.54-1.71,1.01-2.62,1.4
		c-1.43,0.62-2.59,0.15-3.48-1.05c-0.88-1.18-0.13-2.06,0.59-2.92c2.53-2.98,5.04-5.98,7.63-8.9c2.92-3.29,5.22-6.91,6.72-11.06
		c0.55-1.53,1.4-2.98,2.27-4.37c3.45-5.55,8.53-8.02,15.05-7.87c1.51,0.03,3.12-0.19,4.53-0.71c3.56-1.3,5.26-5.55,3.49-8.85
		c-0.51-0.95-1.89-1.45-2.87-2.16C43.63,9.92,43.39,10.01,43.16,10.09z M0.55,16.36c0.99,0.25,1.97,0.67,2.97,0.71
		c4.38,0.2,7.23,2.48,8.23,6.72c0.26,1.12,0.48,2.26,0.82,3.35c0.1,0.33,0.53,0.66,0.88,0.78c0.15,0.05,0.61-0.39,0.72-0.69
		c0.32-0.92,0.65-1.87,0.79-2.83c0.72-5,2.6-7,7.56-7.99c0.74-0.15,1.49-0.41,2.15-0.78c0.41-0.23,0.65-0.75,0.96-1.15
		c-0.41-0.21-0.8-0.52-1.24-0.61c-0.97-0.2-1.97-0.27-2.95-0.42c-4.01-0.59-6.09-2.46-7.06-6.36c-0.17-0.69-0.17-1.44-0.44-2.09
		c-0.33-0.79-0.87-1.49-1.31-2.24c-0.22,0.02-0.44,0.05-0.66,0.07c-0.29,0.82-0.78,1.63-0.84,2.47c-0.37,5.63-2.49,8-8.11,9.08
		c-0.88,0.17-1.68,0.76-2.52,1.16C0.52,15.82,0.53,16.09,0.55,16.36z M47.36,50.06c0.48-0.99,1.16-1.94,1.38-2.99
		c0.55-2.58,1.76-4.32,4.6-4.6c0.41-0.04,0.78-0.6,1.16-0.92c-0.39-0.37-0.74-0.99-1.18-1.06c-2.43-0.36-4.3-1.37-5.11-3.81
		c-0.21-0.62-0.26-1.3-0.5-1.9c-0.16-0.4-0.54-0.73-0.82-1.08c-0.22,0.37-0.59,0.73-0.63,1.12c-0.31,2.79-1.73,4.79-4.19,6.11
		c-0.69,0.37-1.38,0.75-2.46,1.34c4.7,0.8,6.79,3.58,7.32,7.74C47.08,50.01,47.22,50.03,47.36,50.06z"/>
</g>
</svg>
