<?xml version="1.0" encoding="utf-8"?>
<!-- Generator: Adobe Illustrator 24.2.3, SVG Export Plug-In . SVG Version: 6.00 Build 0)  -->
<svg version="1.1" id="Layer_1" xmlns="http://www.w3.org/2000/svg" xmlns:xlink="http://www.w3.org/1999/xlink" x="0px" y="0px"
     viewBox="0 0 58 58" style="enable-background:new 0 0 58 58;" xml:space="preserve">
	<g fill="#a0a0a0">
<path d="M41.13,25.75c-1.56,1.08-2.22,2.42-2.15,4.02c0.17,3.79,0.38,7.58,0.68,11.37c0.3,3.74,0.73,7.46,1.09,11.19
	c0.12,1.24,0.78,2.12,1.85,2.69c0.5,0.27,1.08,0.41,1.53,0.74c0.34,0.25,0.79,0.76,0.73,1.07c-0.08,0.41-0.6,1.05-0.94,1.05
	c-2.59,0.06-5.21,0.16-7.78-0.1c-1.39-0.14-1.27-1.69-1.39-2.81c-0.3-2.83-0.58-5.66-0.88-8.49c-0.02-0.19-0.03-0.38-0.07-0.57
	c-0.35-1.64-1.66-3.06-2.91-3.15c-1.14-0.08-2.09,0.83-2.77,2.65c-0.99,2.65-0.57,5.34-0.17,8.02c0.64,4.27,0.62,4.32-3.62,4.5
	c-1.13,0.05-2.28,0.11-3.4-0.03c-1.29-0.16-1.96-1.95-0.94-2.66c2.85-1.99,2.47-4.89,1.68-7.33c-1.86-5.78-2.18-11.62-1.9-17.59
	c0.04-0.9,0.09-1.83-0.1-2.7c-0.17-0.77-0.66-1.46-1.01-2.19c-0.87,0.5-2.18,0.78-2.52,1.52c-1.76,3.8-2.11,7.66,0.42,11.37
	c1.2,1.76,1.13,2.2-0.59,3.32c-1.57,1.03-1.93,2.59-2.16,4.28c-0.39,2.79-0.41,2.8-3.17,3.22c-1.69,0.25-3.38,0.48-5.08,0.67
	c-2.2,0.25-2.91-0.2-3.17-2.39c-0.43-3.58-0.7-7.18-1.03-10.77c-0.26-2.74-0.48-5.49-0.8-8.22c-0.24-2.05,0.17-3.79,1.66-5.35
	c2.98-3.12,5.89-6.32,8.75-9.55c2.15-2.43,5.05-3.07,8.02-3.56c4.86-0.8,6.46-2.36,7.15-7.26c0.14-1.01,0.57-1.72,1.53-1.99
	c1.13-0.31,2.28-0.6,3.44-0.73c0.96-0.11,1.6,0.32,2.05,1.33c0.96,2.15,1.98,4.32,3.3,6.27c0.83,1.24,2.07,2.42,3.4,3.06
	c3.06,1.48,6.28,2.63,9.45,3.88c1.42,0.56,2.31,1.6,2.97,2.92c0.8,1.61,1.57,3.23,2.41,4.82c2.5,4.69,3.02,9.75,2.74,14.93
	c-0.13,2.41-0.43,4.82-0.73,7.22c-0.34,2.74-0.71,3.2-3.39,3.47c-2.26,0.23-4.55,0.21-6.82,0.2c-0.32,0-0.8-0.54-0.92-0.92
	c-0.33-1.03-0.49-2.12-0.76-3.18c-0.2-0.81-0.61-1.3-1.58-1.33c-0.45-0.01-1.11-0.43-1.26-0.82c-0.16-0.4,0.01-1.17,0.32-1.49
	c2.13-2.09,2.36-4.53,1.54-7.23c-0.53-1.77-0.95-3.57-1.53-5.33C42.08,27.14,41.58,26.53,41.13,25.75z"/>
	</g>
</svg>
