<svg width="58" height="58" viewBox="0 0 58 58" fill="none" xmlns="http://www.w3.org/2000/svg">
<g clip-path="url(#clip0_140_2505)">
<path d="M28.1131 22.4466C27.4058 20.2923 20.3747 20.8344 21.0404 14.1073C21.2355 11.8298 22.2561 9.7028 23.9092 8.12794C25.5623 6.55309 27.7336 5.63941 30.013 5.55948C32.218 5.65678 37.7098 6.9494 38.9718 10.8828C40.2338 14.8162 39.1521 15.4277 39.7345 16.4423C40.317 17.4569 41.7593 17.5681 42.5082 15.3026C43.257 13.0371 44.9351 9.20103 42.5082 6.37955C40.0812 3.55808 35.4632 0.055542 30.3597 0.055542C24.9789 0.055542 11.6794 3.25227 10.9444 15.6779C10.3758 26.1159 19.9587 32.6484 23.0651 34.4413C24.0636 35.0251 25.0067 33.6491 25.0067 33.6491C25.0067 33.6491 29.5831 28.5343 29.1671 27.8394C28.4598 26.4495 23.6199 27.1862 23.6199 26.2271C23.6199 25.2681 28.4321 23.4057 28.1131 22.4466Z" fill="#a0a0a0"/>
<path d="M30.4847 37.6242C30.7204 38.5554 37.1413 40.9043 36.753 44.5736C36.3647 48.243 33.8546 52.3014 29.1395 52.1069C24.4243 51.9123 20.1807 48.7294 19.8894 44.1845C19.5982 39.6395 18.1559 37.9022 17.3793 39.0697C16.6027 40.2372 14.6889 46.7975 12.6642 47.5619C10.6394 48.3263 15.84 54.5113 21.8171 56.6379C24.8244 57.7257 28.0271 58.1642 31.2153 57.9246C34.4035 57.6851 37.5053 56.7729 40.3171 55.248C46.2942 52.0651 49.47 45.5883 47.3482 37.5825C45.2264 29.5768 40.5113 26.6302 37.1413 25.5044C36.3092 25.2264 33.7159 27.4085 33.2999 28.2842C32.8838 29.1598 37.9595 30.091 38.0982 31.467C38.3062 33.4824 30.1102 36.0953 30.4847 37.6242Z" fill="#a0a0a0"/>
</g>
<defs>
<clipPath id="clip0_140_2505">
<rect width="37" height="58" fill="white" transform="translate(11)"/>
</clipPath>
</defs>
</svg>
