<?xml version="1.0" encoding="utf-8"?>
<!-- Generator: Adobe Illustrator 24.2.3, SVG Export Plug-In . SVG Version: 6.00 Build 0)  -->
<svg version="1.1" id="Layer_1" xmlns="http://www.w3.org/2000/svg" xmlns:xlink="http://www.w3.org/1999/xlink" x="0px" y="0px"
	 viewBox="0 0 58 58" style="enable-background:new 0 0 58 58;" xml:space="preserve">
<g fill="#a0a0a0">
	<path d="M20.63,4.52c4.69,6.45,11.53,8.86,19.38,10C33.82,30.3,27.34,45.7,12.88,56.5c-1.55-2.03-3.12-3.84-4.41-5.82
		c-6.99-10.7-9.46-22.45-8.11-35.05c0.05-0.47,0.56-1.18,0.97-1.28c7.09-1.67,13.3-5.02,18.88-9.6C20.31,4.66,20.47,4.6,20.63,4.52z
		 M28.2,21.46c-3.77-0.58-6.89-1.76-8.85-4.31c-2.97,1.39-5.75,2.8-8.62,3.98c-0.89,0.36-1.32,0.72-1.28,1.6
		c0.09,2.18,0,4.38,0.33,6.53c0.68,4.45,2.52,8.42,5.73,11.89C22.22,36.13,25.3,28.98,28.2,21.46z M38.61,1.5
		c-2.89,1.99-5.76,3.97-8.74,6.03c4.32,2.45,9.08,3.51,13.89,4.23c0.03,0.25,0.07,0.36,0.04,0.45c-0.06,0.25-0.14,0.5-0.23,0.75
		c-4.32,11.72-9.42,23.05-16.63,33.35c-0.26,0.37-0.38,1.15-0.17,1.46c1.31,1.87,2.74,3.67,4.28,5.69
		C45.47,42.72,51.83,27.22,58,11.32C50.19,10.23,43.32,7.88,38.61,1.5z"/>
</g>
</svg>
