<?xml version="1.0" encoding="utf-8"?>
<!-- Generator: Adobe Illustrator 24.2.3, SVG Export Plug-In . SVG Version: 6.00 Build 0)  -->
<svg version="1.1" id="Layer_1" xmlns="http://www.w3.org/2000/svg" xmlns:xlink="http://www.w3.org/1999/xlink" x="0px" y="0px"
     viewBox="0 0 58 58" style="enable-background:new 0 0 58 58;" xml:space="preserve">
	<g fill="#a0a0a0">
<path d="M11.7,42c-2.7-3.1-4.4-6.7-5-10.8c-0.6-4,0.4-5.7,4.3-6.7c4.5-1.2,7.6-4,9.6-8.3c0.8-1.8,2-3.4,3.4-5.1
	c3.4,11.8,10.6,19.4,23.1,22c-0.4,0.5-0.6,1.1-1,1.3c-1.7,1.1-3.4,2.2-5.2,3c-3.8,1.8-6.2,4.5-7.3,8.5c-1.5,5-3.1,6-8.2,4.5
	c-2.8-0.8-5.5-2.1-8.3-3.1c-0.5-0.2-1.4-0.4-1.6-0.1c-0.4,0.5-0.8,1.3-0.7,2c0.1,0.9,0.6,1.8,0.9,2.7c0.6,2,0,3.9-1.6,5.2
	c-1.3,1-2.7,1.2-4.1,0.4c-1.8-0.9-2.4-2.6-2.6-4.5c-0.1-0.6,0-1.2,0-2c-0.9,0-1.8-0.1-2.6-0.1c-3.1-0.2-4.5-1.9-4.1-4.8
	c0.4-2.6,2.4-4,5.2-3.5c0.9,0.2,1.9,0.4,2.8,0.6C9.9,43.7,10.9,43.4,11.7,42z M40.6,28c2.6,1.3,5.4,2,8.3,1.6c2.3-0.3,3.7-1.8,3.3-4
	c-0.4-2.1-1.3-4.2-2.1-6.2c-0.3-0.9-1.1-1.1-2-0.7c-0.8,0.4-1.7,0.8-2.5,1.1c-2.3,0.9-4.9,0.4-6.4-1.3c-1.7-1.8-2.1-4.4-1-6.7
	c0.3-0.7,0.7-1.3,1-2c0.4-0.9,0.2-1.7-0.7-2C36.7,7,34.8,6.1,33,5.8c-3.5-0.6-5,0.8-4.9,5.5C28.8,18.5,33.2,24.4,40.6,28z M50.2,2.5
	c-0.6-1.9-2.3-2.7-4.6-2.5c-1.5,0.1-2.6,1.2-2.9,3.2c-0.1,1-0.2,2.2,0.1,3.1c0.7,2.2,0.5,4.1-1.3,5.7c-1.3,1.2-1,3.3,0.3,4.5
	c1.1,1.1,2.5,0.9,3.9-0.4c0.2-0.2,0.4-0.4,0.6-0.6c1.3-1.2,2.7-1.6,4.4-0.8c0.8,0.4,1.8,0.6,2.8,0.6c2.2,0.1,3.7-1.4,3.9-3.6
	c0.3-2.3-0.8-4.1-3-4.5C53.3,7,52.1,7,50.9,6.9C50.7,5.4,50.6,3.9,50.2,2.5z"/>
	</g>
</svg>
