<?xml version="1.0" encoding="utf-8"?>
<!-- Generator: Adobe Illustrator 24.2.3, SVG Export Plug-In . SVG Version: 6.00 Build 0)  -->
<svg version="1.1" id="Layer_1" xmlns="http://www.w3.org/2000/svg" xmlns:xlink="http://www.w3.org/1999/xlink" x="0px" y="0px"
	 viewBox="0 0 58 58" style="enable-background:new 0 0 58 58;" xml:space="preserve">
<g fill="#a0a0a0">
	<path d="M36.57,33.58c-5.11,0-10.04,0-15,0c0.51-1.93,1.08-3.78,1.49-5.67c0.96-4.43,1.12-8.91,0.83-13.42
		c-0.06-1,0.01-2.1,0.37-3.03c1.36-3.57,2.86-7.08,4.31-10.62c0.09-0.22,0.24-0.4,0.51-0.84c1.03,2.28,1.96,4.35,2.88,6.42
		c0.22,0.49,0.38,1.01,0.58,1.51c1.17,2.78,1.78,5.57,1.55,8.7C33.66,22.35,34.45,28,36.57,33.58z M43.35,21.14
		c-0.36,0.84-0.64,1.72-1.08,2.51c-0.76,1.35-0.66,2.45,0.18,3.84c2.47,4.09-0.6,9.16-5.42,9.2c-1.43,0.01-2.87,0-4.54,0
		c1.05,1.88,2.09,3.49,2.87,5.22c0.74,1.66,1.81,2.08,3.6,2.16c2.55,0.12,4.47-0.78,6.29-2.35c2.09-1.8,3.76-3.84,4.48-6.58
		C51.12,29.87,46.82,23.59,43.35,21.14z M21.82,36.71c-2.27,0.18-4.02-0.84-5.57-2.32c-1.79-1.72-2.18-3.78-1.17-6.05
		c0.3-0.68,0.75-1.3,1.07-1.97c0.15-0.3,0.3-0.72,0.2-1c-0.52-1.43-1.12-2.82-1.75-4.37c-2.02,1.71-3.57,3.59-4.78,5.73
		c-1.37,2.41-2.19,4.97-1.67,7.77c0.83,4.52,4.04,7.1,7.67,9.32c0.23,0.14,0.56,0.14,0.84,0.15c1.33,0.01,2.66,0.03,3.99-0.01
		c0.32-0.01,0.8-0.14,0.94-0.37c1.3-2.21,2.54-4.46,3.92-6.9C24.12,36.69,22.96,36.62,21.82,36.71z M29,37.77
		c-1.89,3.02-3.64,5.8-5.35,8.6c-0.17,0.28-0.23,0.71-0.18,1.05c0.39,2.38,0.7,4.79,1.28,7.12c0.35,1.43,0.73,3.15,2.63,3.38
		c1.13,0.13,2.33,0.14,3.43-0.11c0.64-0.15,1.49-0.81,1.65-1.4c0.82-3.08,1.45-6.2,2.12-9.32c0.04-0.18-0.04-0.42-0.15-0.58
		C32.67,43.64,30.89,40.8,29,37.77z"/>
</g>
</svg>
