<?xml version="1.0" encoding="utf-8"?>
<!-- Generator: Adobe Illustrator 24.2.3, SVG Export Plug-In . SVG Version: 6.00 Build 0)  -->
<svg version="1.1" id="Layer_1" xmlns="http://www.w3.org/2000/svg" xmlns:xlink="http://www.w3.org/1999/xlink" x="0px" y="0px"
     viewBox="0 0 58 58" style="enable-background:new 0 0 58 58;" xml:space="preserve">
	<g fill="#a0a0a0">
<path d="M19.8,7.3V2.8c0-1.6,4.1-2.8,9.2-2.8s9.2,1.3,9.2,2.8v4.4c0,1.6-4.1,2.9-9.2,2.9C23.9,10.1,19.8,8.9,19.8,7.3z M56.4,40.8
	c0.3,0.7,0.5,1.5,0.5,2.3c0,0.7-0.1,1.3-0.4,2c-0.3,0.7-0.8,1.2-1.3,1.7c-0.4,0.3-0.8,0.6-1.3,0.8c-0.7,0.3-1.4,0.5-2.1,0.6
	c-0.7,0.1-1.5,0.2-2.4,0.2c-1.5,0-3.2-0.2-5-0.5c-2.7-0.5-5.8-1.3-9.2-2.4c-3.3-1.1-6.9-2.6-10.5-4.3c-3.3-1.6-6.4-3.2-9.2-4.9
	c-0.7-0.4-1.3-0.8-1.9-1.2c-0.3,0.2-0.6,0.4-0.8,0.6c-1.2,0.9-2.2,1.7-3.1,2.5c-1.4,1.2-2.4,2.3-3,3.3c-0.3,0.5-0.5,0.9-0.6,1.2
	C5.8,42.8,5.8,43,5.8,43c0,0,0.1,0,0.1,0c0.2,0.1,0.5,0.2,0.9,0.3s1.1,0.1,1.7,0.1c1.1,0,2.6-0.1,4.2-0.4c2.1-0.4,4.4-0.9,6.9-1.7
	c0.7,0.5,1.5,0.9,2.3,1.3v-0.1c2,1.1,4.1,2.1,6.2,2.9c2.1,0.8,5.3,2.1,7.6,2.8V51c0,3.8-3.1,7-6.9,7S22,54.9,22,51v-5.4
	c-0.8,0.3-1.7,0.5-2.5,0.8c-2.1,0.6-4.1,1.1-5.9,1.4c-1.8,0.3-3.5,0.5-5,0.5c-0.7,0-1.4,0-2.1-0.1c-0.5-0.1-1-0.2-1.5-0.3
	c-0.7-0.2-1.4-0.5-2-1c-0.3-0.2-0.6-0.5-0.9-0.8c-0.3-0.3-0.5-0.7-0.7-1c-0.3-0.6-0.4-1.3-0.4-2c0-0.5,0.1-1,0.2-1.4
	c0.3-0.8,0.6-1.6,1.1-2.3c0.8-1.3,2-2.6,3.4-4c1.1-1.1,2.4-2.1,3.8-3.2c-1.1-0.8-2.2-1.7-3.1-2.5c-1.6-1.4-2.8-2.8-3.8-4.1
	c-0.5-0.7-0.9-1.4-1.1-2.1C1.2,22.7,1,21.9,1,21.1c0-0.6,0.1-1.3,0.4-2c0.3-0.7,0.8-1.2,1.3-1.7c0.4-0.3,0.8-0.6,1.3-0.8
	c0.7-0.3,1.4-0.5,2.1-0.6c0.7-0.1,1.5-0.2,2.4-0.2c1.5,0,3.2,0.2,5,0.5c2.6,0.5,5.4,1.2,8.5,2.2v-7.4c1.5,0.7,4,1.1,6.9,1.1
	c2.9,0,5.4-0.5,6.9-1.1v5.2c-4.4,1.2-8.5,3.5-12.8,5.2c0,0,0,0,0,0c-0.1,0.1-0.3,0.1-0.5,0.2c0,0-0.1,0-0.1,0.1
	c-0.1,0-0.3,0.1-0.4,0.2c-0.6,0.3-1.3,0.5-1.8,1c-0.7-0.2-1.4-0.4-2-0.6c-2-0.6-3.8-1-5.4-1.3c-1.7-0.3-3.1-0.4-4.2-0.4
	c-0.6,0-1.1,0-1.4,0.1c-0.3,0-0.6,0.1-0.8,0.2C6,21,5.8,21.1,5.8,21.1c0,0,0,0.1,0,0.2c0.1,0.2,0.2,0.6,0.5,1.1
	c0.5,0.8,1.4,1.9,2.6,3c1.3,1.2,2.9,2.5,4.7,3.9c0.1,0,0.1-0.1,0.2-0.1c3.2-2.1,7-4.1,11-6.1c4.8-2.3,9.5-4.1,13.7-5.3
	c2.1-0.6,4.1-1.1,5.9-1.4s3.5-0.5,5-0.5c0.7,0,1.5,0.1,2.1,0.1c0.5,0.1,1,0.2,1.5,0.3c0.7,0.2,1.4,0.5,2,1c0.3,0.2,0.6,0.5,0.9,0.8
	c0.3,0.3,0.5,0.6,0.7,1c0.3,0.6,0.5,1.3,0.5,2c0,0.5-0.1,1-0.2,1.4c-0.2,0.8-0.6,1.6-1,2.4c-0.8,1.3-2,2.6-3.4,4
	c-1.1,1.1-2.4,2.2-3.9,3.3c1.1,0.8,2.1,1.6,3,2.5c1.5,1.4,2.8,2.8,3.8,4.1C55.7,39.4,56.1,40.1,56.4,40.8z M52.1,43.1
	c0,0,0-0.1,0-0.2c0-0.2-0.2-0.6-0.5-1.1c-0.5-0.8-1.4-1.9-2.6-3c-1.2-1.2-2.8-2.5-4.6-3.8c0,0,0,0-0.1,0c-1.9,1.2-3.9,2.4-6,3.5
	c-1.5-0.6-3.2-1-4.4-1.3c0,0,0,0,0,0c-0.2,0-0.3-0.1-0.5-0.2c-3.8-1.5-7.5-3-11.3-4.4c1.9-0.8,3.8-2.3,5.6-3
	c1.6-0.6,3.2-1.2,4.8-1.8c0.2-0.1,0.4-0.1,0.6-0.2c0.2-0.1,0.3-0.1,0.5-0.2c0.2-0.1,0.5-0.2,0.7-0.3c0.1,0,0.3-0.1,0.4-0.2
	c0.3-0.1,0.6-0.3,0.9-0.4c0,0,0.1,0,0.1-0.1c0.4-0.2,0.7-0.4,1.1-0.5c0.4-0.1,0.8-0.3,1.2-0.4c1.5,0.8,2.9,1.6,4.3,2.5
	c0.7,0.4,1.4,0.9,2.1,1.3c0.3-0.2,0.6-0.5,0.9-0.7c1.2-0.9,2.2-1.7,3.1-2.5c1.4-1.2,2.4-2.4,3-3.3c0.3-0.5,0.5-0.9,0.6-1.1
	c0.1-0.2,0.1-0.4,0.1-0.5c0,0,0,0-0.1,0c-0.2-0.1-0.5-0.2-1-0.3c-0.5-0.1-1-0.1-1.7-0.1c-1.1,0-2.6,0.1-4.2,0.4
	c-2.5,0.4-5.3,1.2-8.5,2.2c-3.1,1.1-6.5,2.4-10,4c-3.2,1.5-6.1,3.1-8.7,4.7c0,0-0.1,0-0.1,0.1c2.7,1.6,5.6,3.2,8.8,4.7
	c4.6,2.2,9.1,3.9,13,5c2,0.6,3.8,1,5.4,1.3c1.6,0.3,3.1,0.4,4.2,0.4c0.5,0,1,0,1.5-0.1c0.3,0,0.6-0.1,0.8-0.2
	C51.9,43.2,52,43.2,52.1,43.1z"/>
	</g>
</svg>
