<svg width="58" height="58" viewBox="0 0 58 58" fill="none" xmlns="http://www.w3.org/2000/svg">
<g clip-path="url(#clip0_140_2486)">
<path d="M47.0154 16.7797L31.1612 2.67009C30.6519 2.23025 29.9979 1.98779 29.321 1.98779C28.644 1.98779 27.99 2.23025 27.4807 2.67009L11.6076 16.7797C11.3683 16.9824 11.1762 17.2337 11.0445 17.5165C10.9129 17.7992 10.8447 18.1066 10.8447 18.4177C10.8447 18.7289 10.9129 19.0364 11.0445 19.3191C11.1762 19.6018 11.3683 19.8531 11.6076 20.0558L26.0652 32.9183V52.7797C26.1277 53.5891 26.4979 54.3453 27.1015 54.897C27.7052 55.4488 28.4979 55.7553 29.321 55.7553C30.144 55.7553 30.9367 55.4488 31.5404 54.897C32.144 54.3453 32.5142 53.5891 32.5767 52.7797V32.9183L47.0154 20.0558C47.2605 19.8567 47.4579 19.6066 47.5934 19.3234C47.7289 19.0402 47.7992 18.7309 47.7992 18.4177C47.7992 18.1046 47.7289 17.7953 47.5934 17.5121C47.4579 17.2289 47.2605 16.9788 47.0154 16.7797V16.7797ZM38.4465 19.7766L30.8969 26.5522C30.475 26.9124 29.9356 27.1106 29.3776 27.1106C28.8195 27.1106 28.2802 26.9124 27.8582 26.5522L20.3086 19.7766C20.12 19.6025 19.9697 19.3921 19.8669 19.1583C19.7642 18.9246 19.7111 18.6725 19.7111 18.4177C19.7111 18.163 19.7642 17.911 19.8669 17.6772C19.9697 17.4435 20.12 17.2331 20.3086 17.0589L27.8582 10.2833C28.2802 9.92312 28.8195 9.72486 29.3776 9.72486C29.9356 9.72486 30.475 9.92312 30.8969 10.2833L38.4465 17.0589C38.6351 17.2331 38.7854 17.4435 38.8882 17.6772C38.991 17.911 39.044 18.163 39.044 18.4177C39.044 18.6725 38.991 18.9246 38.8882 19.1583C38.7854 19.3921 38.6351 19.6025 38.4465 19.7766V19.7766Z" fill="#a0a0a0"/>
<path d="M30.5383 14.1737C30.3787 14.0155 30.189 13.8901 29.9801 13.8044C29.7712 13.7188 29.5472 13.6747 29.321 13.6747C29.0947 13.6747 28.8707 13.7188 28.6618 13.8044C28.4529 13.8901 28.2632 14.0155 28.1036 14.1737L25.9897 16.2585C25.7289 16.5129 25.5218 16.8159 25.3805 17.1497C25.2392 17.4836 25.1665 17.8419 25.1665 18.2037C25.1665 18.5655 25.2392 18.9237 25.3805 19.2576C25.5218 19.5915 25.7289 19.8944 25.9897 20.1489L28.1036 22.2337C28.2632 22.3918 28.4529 22.5173 28.6618 22.6029C28.8707 22.6886 29.0947 22.7327 29.321 22.7327C29.5472 22.7327 29.7712 22.6886 29.9801 22.6029C30.189 22.5173 30.3787 22.3918 30.5383 22.2337L32.6522 20.1489C32.913 19.8944 33.1201 19.5915 33.2614 19.2576C33.4027 18.9237 33.4754 18.5655 33.4754 18.2037C33.4754 17.8419 33.4027 17.4836 33.2614 17.1497C33.1201 16.8159 32.913 16.5129 32.6522 16.2585L30.5383 14.1737Z" fill="#a0a0a0"/>
<path d="M35.5964 43.6401C37.4493 43.2501 39.148 42.3395 40.4877 41.0183C41.8273 39.6971 42.7506 38.0217 43.1461 36.1944C44.2408 29.9586 43.6934 28.4136 43.6934 28.4136L50.9599 22.6804C50.9599 22.6804 59.5854 25.6587 57.6602 26.8314C55.7351 28.0041 50.6768 29.1023 52.149 30.4612C53.6212 31.82 57.8113 32.8066 55.6407 35.8779C53.4702 38.9493 48.3931 38.6887 49.1292 40.4943C49.8653 42.2999 54.1686 46.2833 49.6765 46.9162C45.1845 47.5491 44.1653 46.0599 43.5236 47.8469C42.8818 49.6339 40.7679 54.5294 38.2011 52.6308C35.6342 50.7321 35.5964 43.6401 35.5964 43.6401Z" fill="#a0a0a0"/>
<path d="M22.3846 43.6401C20.5317 43.2501 18.833 42.3395 17.4934 41.0183C16.1537 39.6971 15.2304 38.0217 14.8349 36.1944C13.7402 29.9586 14.2876 28.4136 14.2876 28.4136L6.96449 22.6804C6.96449 22.6804 -1.66094 25.6587 0.264218 26.8314C2.18937 28.0041 7.24759 29.1023 5.77541 30.4612C4.30324 31.82 0.113181 32.8066 2.2837 35.8779C4.45422 38.9493 9.53136 38.6887 8.79527 40.4943C8.05919 42.2999 3.75588 46.2833 8.24791 46.9162C12.7399 47.5491 13.7592 46.0599 14.4009 47.8469C15.0426 49.6339 17.1565 54.5294 19.7234 52.6308C22.2902 50.7321 22.3846 43.6401 22.3846 43.6401Z" fill="#a0a0a0"/>
</g>
<defs>
<clipPath id="clip0_140_2486">
<rect width="58" height="54" fill="white" transform="translate(0 2)"/>
</clipPath>
</defs>
</svg>
