<?xml version="1.0" encoding="utf-8"?>
<!-- Generator: Adobe Illustrator 24.2.3, SVG Export Plug-In . SVG Version: 6.00 Build 0)  -->
<svg version="1.1" id="Layer_1" xmlns="http://www.w3.org/2000/svg" xmlns:xlink="http://www.w3.org/1999/xlink" x="0px" y="0px"
	 viewBox="0 0 58 58" style="enable-background:new 0 0 58 58;" xml:space="preserve">
<g fill="#a0a0a0">
	<path d="M31.8,52.5c-6.4,0-12.4-1-18-3.4c-1.9-0.8-3.6-1.8-5.4-2.9c-1.4-0.9-1.5-1.6-1-3.2c1.3-5,3.3-9.7,6.3-13.9
		c0.2-0.3,0.2-1.1,0-1.4c-1.5-2-1.3-3.9,0.2-5.9c3.1-4.2,6.1-8.6,9.2-12.8c3.4-4.5,9-4.5,12.3,0c3.2,4.4,6.2,8.9,9.3,13.3
		c1.2,1.7,1.2,3.5,0,5.2c-0.3,0.5-0.6,0.9-1,1.5c3.6,2.7,4.9,6.7,6,10.8c0.4,1.3,0.8,2.7,1.2,4c0.3,0.9,0.1,1.6-0.8,2.2
		c-5,3.1-10.2,5.4-16.2,6.4c-0.5-4.8-1.1-9.5-1.6-14.2c-0.2,0-0.4,0-0.5,0C31.8,42.8,31.8,47.6,31.8,52.5z M22.6,17.4
		c-1.4,5.6,0.5,9.8,5.1,12.9c1.4,0.9,2.1,0.9,3.3-0.2c0.8-0.8,1.6-1.6,2.4-2.4c2.9-2.9,2.7-6.4,2.2-10.2
		C31.3,19.5,26.9,19.1,22.6,17.4z M10.5,8c-2.4,3-4.6,6.2-6.7,9.5c-0.4,0.6-0.3,1.7-0.3,2.5c0,0.6,0.2,1.2,0,1.7c-1.1,3-2.3,6-3.4,9
		c-0.2,0.5,0,1.6,0.4,1.9c1.4,1,2.9,1.8,4.5,2.5c0.4,0.2,1.2-0.1,1.5-0.4c1.1-1.6,2.2-3.2,3.1-4.9c0.4-0.8,0.7-1.9,0.6-2.8
		c-0.3-2.7,0.5-4.9,2-7.1c2-2.8,3.9-5.6,5.7-8.4c1-1.6,1-2.8-0.1-3.6c-1-0.8-2.3-1.2-3.7-2C12.7,6.6,11.2,7,10.5,8z M57,32.8
		c0.9-0.5,1.2-1.3,0.8-2.4c-0.8-1.9-1.5-3.9-2.2-5.9c-0.8-2-2-4-1.5-6.3c0.1-0.4-0.2-0.9-0.4-1.3c-2.1-3.1-4.1-6.1-6.3-9.1
		c-1.7-2.2-5-2.3-7-0.4c-0.9,0.9-1.1,1.8-0.4,2.9c2.1,3.2,4.1,6.6,6.3,9.8c1.3,2,1.9,4.1,1.5,6.5c-0.2,0.9-0.2,2,0.2,2.7
		c1.1,2.1,2.5,4.1,3.8,6.3C53.6,34.7,55.3,33.8,57,32.8z"/>
</g>
</svg>
