<?xml version="1.0" encoding="utf-8"?>
<!-- Generator: Adobe Illustrator 24.2.3, SVG Export Plug-In . SVG Version: 6.00 Build 0)  -->
<svg version="1.1" id="Layer_1" xmlns="http://www.w3.org/2000/svg" xmlns:xlink="http://www.w3.org/1999/xlink" x="0px" y="0px"
	 viewBox="0 0 58 58" style="enable-background:new 0 0 58 58;" xml:space="preserve">
<g fill="#a0a0a0">
	<path d="M9.6,27l-3.5,5.4L6,37.6H0V0.5h4L7.8,2v7.3l1.7,2.1c0.2,0.3,0.4,0.7,0.4,1v13.8C9.9,26.5,9.8,26.8,9.6,27z M54,0.5L50.2,2
		v7.3l-1.7,2.1c-0.2,0.3-0.4,0.7-0.4,1v13.8c0,0.3,0.1,0.6,0.3,0.9l3.5,5.4l0.1,5.2h6V0.5H54z M50.9,33.2l0.1,4.4l-6.4-2.1L42.3,30
		l-7.6,3.5l3.1,2.5v5.6L35,44.4l-1.5,13.1H29h-4.5L23,44.4l-2.8-2.8V36l3.1-2.5L15.7,30l-2.3,5.5L7,37.6l0.1-4.4
		c0-0.3,0.1-0.5,0.2-0.8L11,27c0.2-0.3,0.3-0.6,0.3-0.9V12.4c0-0.4-0.1-0.7-0.4-1L9.2,9.2V2.5H16v10.1l1.8,1.8l0.4-13.2h7.1l1.5,1.9
		c0.2,0.3,0.2,0.8,0,1.1c-0.4,0.6-1.2,1.5-1.6,2.3C25,7.1,24.9,8,25,8.7c1.3-0.5,2.8-0.7,4.3-0.7c1.3,0,2.6,0.2,3.8,0.6
		c0-0.7,0-1.5-0.3-2.1c-0.4-0.7-1.3-1.7-1.6-2.3c-0.2-0.3-0.2-0.8,0-1.1l1.6-1.9h7.2l0.4,13.2l1.8-1.8V2.5h6.8v6.8l-1.7,2.1
		c-0.2,0.3-0.4,0.7-0.4,1v13.8c0,0.3,0.1,0.6,0.3,0.9l3.7,5.4C50.8,32.7,50.9,32.9,50.9,33.2z M37,23.2c0.2-0.6,0.2-1.3,0.2-2
		c0-3.7-2.3-6.9-5.5-8.1v4.1l0,0c0,0,0,0,0,0c0,1.4-1.2,2.6-2.7,2.6s-2.7-1.1-2.7-2.6c0,0,0,0,0,0l0,0v-4.1
		c-3.2,1.2-5.5,4.3-5.5,8.1c0,2.6,1.1,4.9,2.9,6.5l1.3,0.8l1-2.8c0,0,2.1-2.8,3-2.8s3,2.8,3,2.8l1,2.8l1.1-0.6
		c0.3-0.2,0.5-0.5,0.8-0.7c0.1-0.1,0.2-0.2,0.3-0.3c0.2-0.2,0.4-0.5,0.6-0.8c0.1-0.1,0.2-0.3,0.3-0.5c0.1-0.2,0.2-0.4,0.3-0.6
		c0.1-0.3,0.2-0.5,0.3-0.8c0.1-0.2,0.1-0.4,0.2-0.6C36.9,23.5,37,23.4,37,23.2C37,23.2,37,23.2,37,23.2z"/>
</g>
</svg>
