<?xml version="1.0" encoding="utf-8"?>
<!-- Generator: Adobe Illustrator 24.2.3, SVG Export Plug-In . SVG Version: 6.00 Build 0)  -->
<svg version="1.1" id="Layer_1" xmlns="http://www.w3.org/2000/svg" xmlns:xlink="http://www.w3.org/1999/xlink" x="0px" y="0px"
	 viewBox="0 0 58 58" style="enable-background:new 0 0 58 58;" xml:space="preserve">
<g fill="#a0a0a0">
	<path d="M28.7,18.25c5.03,0.04,9.14-4.01,9.17-9.04c0.03-4.96-4.04-9.17-8.9-9.21c-4.92-0.04-8.96,4.04-8.99,9.07
		C19.96,14.12,23.85,18.21,28.7,18.25z M23.82,6.53c0.57-1.29,1.9-1.95,2.97-1.47c1.07,0.48,1.49,1.91,0.92,3.21
		c-0.57,1.29-1.9,1.95-2.97,1.47C23.66,9.26,23.25,7.82,23.82,6.53z M22.4,39.27c1.08,2.83,0.27,5.54-0.36,8.36
		c-0.21-0.08-0.45-0.09-0.5-0.2c-1.69-3.4-4.78-4.09-8.14-4.33c-1.38-0.1-2.74-0.32-4.11-0.49c-0.04-0.12-0.09-0.25-0.13-0.37
		c1.77-1.51,3.53-3.02,5.39-4.6c-2.86-1.89-5.99-3.28-8.07-6.36c3.29-0.16,6.36-0.31,9.61-0.47c-0.21-0.44-0.33-0.74-0.5-1.02
		c-1.75-2.74-3.5-5.47-5.25-8.21c-0.77-1.2-1.34-2.46-1.04-4.04c3.96,1.66,7.89,3.25,10.72,6.68c1.3,1.58,2.09,3.36,2.14,5.42
		c0.07,2.73,0.08,5.46,0.12,8.19C22.29,38.31,22.24,38.84,22.4,39.27z M43.41,37.72c1.89,1.58,3.72,3.11,5.9,4.93
		c-2.21,0.28-4.07,0.71-5.93,0.7c-2.76-0.02-4.79,0.88-6.13,3.41c-0.83,1.57-1.58,1.98-3.2,2.44c-0.66-2.1,0.2-3.96,0.54-5.89
		c0.42-2.32,0.76-4.66,0.96-7.01c0.18-2.14-0.03-4.32,0.21-6.46c0.51-4.58,3.2-7.63,7.16-9.67c1.52-0.78,3.06-1.51,4.61-2.21
		c0.32-0.15,0.73-0.12,1.09-0.17c0.02,0.36,0.16,0.78,0.03,1.07c-0.7,1.55-1.39,3.12-2.23,4.6c-1.25,2.21-2.61,4.36-3.91,6.54
		c-0.12,0.21-0.14,0.47-0.24,0.83c3.09,0.18,6.07,0.35,9.23,0.54C49.39,34.45,46.34,35.88,43.41,37.72z M33.04,35.58
		c0.09,2.91-0.48,5.69-1.57,8.37c-1.35,3.33-1.9,6.75-1.2,10.33c0.16,0.8,0.08,1.67,0,2.49c-0.04,0.42-0.25,1.1-0.51,1.16
		c-0.58,0.14-1.24,0.04-1.85-0.09c-0.24-0.05-0.51-0.39-0.6-0.66c-0.84-2.43-2.24-7.4-2.13-7.44c0.04-0.48,0.01-0.99,0.14-1.44
		c1.24-4.31,0.78-8.63,0.09-12.96c-0.37-2.3-0.6-4.62-0.94-6.93c-0.27-1.79-1.12-3.28-2.25-4.69c-0.78-0.97-1.4-2.13-1.84-3.3
		c-0.2-0.53-0.01-1.49,0.37-1.88c0.3-0.31,1.28-0.27,1.78-0.02c4.16,2.08,8.28,2.18,12.49,0.16c0.53-0.25,1.69-0.25,1.86,0.05
		c0.34,0.57,0.47,1.58,0.19,2.17c-0.66,1.37-1.53,2.67-2.47,3.87c-1.16,1.5-1.74,3.14-1.72,5.01
		C32.93,31.71,32.99,33.64,33.04,35.58z"/>
</g>
</svg>
