<?xml version="1.0" encoding="utf-8"?>
<!-- Generator: Adobe Illustrator 24.2.3, SVG Export Plug-In . SVG Version: 6.00 Build 0)  -->
<svg version="1.1" id="Layer_1" xmlns="http://www.w3.org/2000/svg" xmlns:xlink="http://www.w3.org/1999/xlink" x="0px" y="0px"
	 viewBox="0 0 58 58" style="enable-background:new 0 0 58 58;" xml:space="preserve">
<g fill="#a0a0a0">
	<path d="M32.7,24.6c-0.9-4.4-3.1-8.2-5.2-12.1C34.2,9.1,42.2,7,49,7.6c-1.1,1.2-1.9,2.5-3.1,3.3c-2.7,1.9-3.7,4.6-4.2,7.7
		c-0.4,2.6-0.9,5.1-1.7,7.6c-1.2,3.3-3.7,5.5-6.9,6.8c-1,0.4-1.4,1-1.4,2.2c0.1,3.3,0,6.6,0.1,9.9c3.5-5.4,8.4-7.2,14.5-6.5
		c0.3,4.7-3.6,9.3-8.4,10c-1.2,0.2-2.4,0.1-3.6,0.2c-2.1,0.1-2.9,0.7-3.5,2.7c-0.2,0.8-0.4,1.5-0.5,2.3c-0.2,1.8-0.8,3.3-2.7,4.2
		c-1.1-1.3-1.2-2.8-0.8-4.4c0.3-1.5,0.7-2.9,0.7-4.4c0.1-2.2-0.8-3.5-2.9-4.3c-0.9-0.3-1.8-0.5-2.6-0.8c-4.6-1.5-7.4-4.9-7.6-9.1
		c-0.1-0.9,0.2-1.3,1.1-1.5c3.2-0.7,5.9,0.4,7.9,2.9c1.6,2,3,4.3,4.7,6.6c0-2.8,0-5.5-0.1-8.2c0-0.4-0.7-1-1.2-1.1
		c-6.6-1.4-9.6-5.8-10.4-12.3C16,16.5,14.1,12.1,10,9.1C9.6,8.8,9.4,8.2,9,7.6C21.1,7.7,27.9,14.8,32.7,24.6z M23,1.2
		c-1.7-0.4-3.6-0.2-5.3,0c-1.1,0.1-2.3,0.9-2.1,2.2c0.2,1.2,0.8,2.7,1.7,3.2c2.7,1.5,5.6,2.6,8.4,3.8c2-0.9,4-1.8,6.2-2.7
		C29.7,4.3,26.9,2,23,1.2z M33.8,5.7c0.4,0.4,1.1,0.6,1.6,0.5c2.1-0.4,4.3-0.9,6.5-1.5c-0.7-1.3-1.2-2.5-1.8-3.5
		c-0.3-0.4-0.8-0.9-1.2-1c-3-0.3-5.9-0.1-8.6,1.7C31.5,3.2,32.6,4.5,33.8,5.7z"/>
</g>
</svg>
