<?xml version="1.0" encoding="utf-8"?>
<!-- Generator: Adobe Illustrator 24.2.3, SVG Export Plug-In . SVG Version: 6.00 Build 0)  -->
<svg version="1.1" id="Layer_1" xmlns="http://www.w3.org/2000/svg" xmlns:xlink="http://www.w3.org/1999/xlink" x="0px" y="0px"
     viewBox="0 0 58 58" style="enable-background:new 0 0 58 58;" xml:space="preserve">
	<g fill="#a0a0a0">
    <path d="M58,32.4v-7.11l-5.9-1.48c-0.62-2.73-1.72-5.28-3.21-7.56l3.15-5.47l-5.06-5.03l-5.53,3.29c-2.19-1.34-4.61-2.35-7.2-2.92
	L32.58,0h-7.15l-1.55,6.12c-2.65,0.59-5.13,1.64-7.37,3.04l-5.67-3.23l-5.06,5.03l3.33,5.55c-1.37,2.16-2.4,4.56-3.01,7.12L0,25.29
	v7.11l5.97,1.5c0.58,2.74,1.66,5.3,3.11,7.6l-3.11,5.41l5.06,5.03l5.3-3.15c2.25,1.44,4.75,2.5,7.43,3.12L25.42,58h7.15l1.53-6.02
	c2.82-0.61,5.45-1.72,7.79-3.23l5.27,3l5.06-5.03l-3.14-5.23c1.44-2.28,2.51-4.81,3.09-7.52L58,32.4z M13.29,29.03
	c0-8.66,7.08-15.71,15.79-15.71c8.71,0,15.79,7.05,15.79,15.71s-7.08,15.71-15.79,15.71C20.37,44.74,13.29,37.69,13.29,29.03z
	 M34.43,38.02l-8.78-8.56V17.31h5.6v9.81l7.11,6.93L34.43,38.02z"/>
        </g>
</svg>