<?xml version="1.0" encoding="utf-8"?>
<!-- Generator: Adobe Illustrator 24.2.3, SVG Export Plug-In . SVG Version: 6.00 Build 0)  -->
<svg version="1.1" id="Layer_1" xmlns="http://www.w3.org/2000/svg" xmlns:xlink="http://www.w3.org/1999/xlink" x="0px" y="0px"
	 viewBox="0 0 58 58" style="enable-background:new 0 0 58 58;" xml:space="preserve">
<g fill="#a0a0a0">
	<path d="M27.3,11c0-6.1-4.9-11-10.9-11S5.5,4.9,5.5,11c0,0.5,0,0.9,0.1,1.4l2.9,43.2l2.3-7.4l1.8,9.9l3.8-12.1l1,7.6l9.5-39.6
		c0.1-0.3,0.1-0.6,0.2-0.8l0-0.1h0C27.3,12.4,27.3,11.7,27.3,11z M16.4,16.2c-2.7,0-4.9-2.2-4.9-4.9c0-2.7,2.2-4.9,4.9-4.9
		s4.9,2.2,4.9,4.9C21.3,14,19.1,16.2,16.4,16.2z M52.5,17.3c0-4.8-3.9-8.7-8.7-8.7c-3.5,0-6.5,2.1-7.8,5.1l0,0v0
		c-0.3,0.6-0.5,1.3-0.7,2.1L24.2,51.2l4.6-6.6l-2.1,9.9l23.4-31.2c0.4-0.5,0.8-1,1.1-1.5l0,0l0,0C52,20.5,52.5,19,52.5,17.3z
		 M43.9,20.5c-1.5,0-2.7-1.2-2.7-2.7s1.2-2.7,2.7-2.7s2.7,1.2,2.7,2.7S45.4,20.5,43.9,20.5z"/>
</g>
</svg>
