<?xml version="1.0" encoding="utf-8"?>
<!-- Generator: Adobe Illustrator 24.2.3, SVG Export Plug-In . SVG Version: 6.00 Build 0)  -->
<svg version="1.1" id="Layer_1" xmlns="http://www.w3.org/2000/svg" xmlns:xlink="http://www.w3.org/1999/xlink" x="0px" y="0px"
	 viewBox="0 0 58 58" style="enable-background:new 0 0 58 58;" xml:space="preserve">
<style type="text/css">
	.st0{fill:#a0a0a0;}
</style>
<path class="st0" d="M54,35.3c0,0-4.3,15.3-19,21.7c0,0,7.5-12,7.5-20.8c-0.1-4.8-1.4-12.9-13.5-12.9s-13.4,8-13.4,12.9
	c0,9,7.5,20.8,7.5,20.8C8.4,50.7,4,35.3,4,35.3s5.9-1.3,8.9-17.7C15.9,1.4,29,1,29,1s13.1,0.4,16,16.7C47.9,33.9,54,35.3,54,35.3z
	 M29,26.9c0,0-8.2-0.2-10.2,5.5c2.4,6.4,5.1,14,10.2,14s8-7.6,10.2-14C37.2,26.8,29,26.9,29,26.9z"/>
</svg>
