<svg width="58" height="58" viewBox="0 0 58 58" fill="none" xmlns="http://www.w3.org/2000/svg">
<g clip-path="url(#clip0_140_2500)" fill="#a0a0a0">
<path d="M21.5941 22.8903C21.2463 21.6444 11.1014 15.8499 4.4637 16.0151C-2.17398 16.1802 0.463707 24.6317 0.985446 27.4689C1.50719 30.3061 -0.260936 35.1698 0.028919 38.1421C0.318774 41.1143 2.72457 42.7506 7.63761 41.6548C12.5507 40.5589 21.971 39.1629 21.5941 35.8003C21.2173 32.4377 19.8695 30.1709 15.7101 29.3753C11.5507 28.5797 16.2318 27.8742 18.0579 29C19.884 30.1259 22.9999 27.8892 21.5941 22.8903Z" fill="#a0a0a0"/>
<path d="M36.3913 22.8903C36.7391 21.6444 46.884 15.8499 53.5217 16.0151C60.1594 16.1802 57.5362 24.6317 57 27.4689C56.4637 30.3061 58.2464 35.1698 57.9565 38.1421C57.6667 41.1143 55.2609 42.7506 50.3623 41.6548C45.4638 40.5589 36.0145 39.1629 36.3913 35.8003C36.7681 32.4377 38.1304 30.1709 42.2753 29.3753C46.4203 28.5797 41.7536 27.8742 39.942 29C38.1304 30.1259 34.9855 27.8892 36.3913 22.8903Z" fill="#a0a0a0"/>
<path d="M31.6666 25.187H26.3333C24.6524 25.187 23.2898 26.5984 23.2898 28.3394V33.1882C23.2898 34.9292 24.6524 36.3406 26.3333 36.3406H31.6666C33.3475 36.3406 34.7101 34.9292 34.7101 33.1882V28.3394C34.7101 26.5984 33.3475 25.187 31.6666 25.187Z" fill="#a0a0a0"/>
</g>
<defs>
<clipPath id="clip0_140_2500">
<rect width="58" height="26" fill="white" transform="translate(0 16)"/>
</clipPath>
</defs>
</svg>
