<?xml version="1.0" encoding="utf-8"?>
<!-- Generator: Adobe Illustrator 25.4.1, SVG Export Plug-In . SVG Version: 6.00 Build 0)  -->
<svg version="1.1" id="Layer_1" xmlns="http://www.w3.org/2000/svg" xmlns:xlink="http://www.w3.org/1999/xlink" x="0px" y="0px"
	 viewBox="0 0 58 58" style="enable-background:new 0 0 58 58;" xml:space="preserve">
	<g fill="#a0a0a0">
	<path d="M58,30.3c0,3.6-13,6.6-29,6.6S0,34,0,30.3c0-2,4-3.8,10.2-5l-1.8-7.2l8,5.3c0-3.2,0.8-9.4,6.1-14.7c5.2-5.3,10-7,13.2-6.7
		c3.7,0.3,5.5,3,5.5,3s-6.4-1.7-6.4,8.8c0,3.1,2.4,6.3,4.7,8.6l6.4-4.3l-1.6,6.6C52.5,25.9,58,28,58,30.3z M47.2,38.1
		c-0.1-0.4-11.3,1.4-18.2,1.4s-18.1-1.9-18.2-1.4C9.1,49.4,14.1,56,29,56S48.9,49.4,47.2,38.1z M25,49.6c-1.3,0.7-3.5,0.2-6-1.7
		c-2.5-2-3.4-4.7-3-5.4c0.4-0.7,3.5-0.2,6,1.7C24.4,46.2,26.3,48.9,25,49.6z M39,47.9c-2.5,2-4.6,2.5-6,1.7c-1.3-0.7,0.5-3.4,3-5.4
		c2.5-2,5.6-2.5,6-1.7C42.4,43.2,41.5,45.9,39,47.9z"/>
	</g>
</svg>
