<?xml version="1.0" encoding="utf-8"?>
<!-- Generator: Adobe Illustrator 24.2.3, SVG Export Plug-In . SVG Version: 6.00 Build 0)  -->
<svg version="1.1" id="Layer_1" xmlns="http://www.w3.org/2000/svg" xmlns:xlink="http://www.w3.org/1999/xlink" x="0px" y="0px"
     viewBox="0 0 58 58" style="enable-background:new 0 0 58 58;" xml:space="preserve">
	<g fill="#a0a0a0">
<path d="M58,6.8l-15.7,3.4c-3.2-2.3-8-3.7-13.3-3.7s-10.2,1.4-13.4,3.7L0,6.8L3.4,23L0,32.5c0,0,3.7,7,11.6,13.3
	C19.5,52,29,51.5,29,51.5s9.5,0.5,17.4-5.8C54.3,39.5,58,32.5,58,32.5L54.6,23L58,6.8z M9.6,29.7v-3.6c0,0,3.3-6.4,6.3-6.4
	c4.3,0,6.8,6.7,6.8,6.7v3.3c0,0-2-3.3-6.9-3.3C12.1,26.4,9.6,29.7,9.6,29.7z M38.7,36.1c0,0-2.4,6.4-9.7,6.4c-7.4,0-9.8-6.3-9.8-6.3
	v-3.6c0,0,4.5,3.4,9.8,3.4c5.3,0,9.7-3.4,9.7-3.4V36.1z M48.6,29.7c0,0-2.5-3.3-6.1-3.3c-4.9,0-7,3.3-7,3.3v-3.3
	c0,0,2.5-6.7,6.8-6.7c3,0,6.3,6.4,6.3,6.4L48.6,29.7L48.6,29.7z"/>
	</g>
</svg>
