<?xml version="1.0" encoding="utf-8"?>
<!-- Generator: Adobe Illustrator 24.2.3, SVG Export Plug-In . SVG Version: 6.00 Build 0)  -->
<svg version="1.1" id="Layer_1" xmlns="http://www.w3.org/2000/svg" xmlns:xlink="http://www.w3.org/1999/xlink" x="0px" y="0px"
	 viewBox="0 0 58 58" style="enable-background:new 0 0 58 58;" xml:space="preserve">
<g fill="#a0a0a0">
	<path d="M19.8,31c-1.1,0.6-2.8,0.6-3.9,0l-13-7.5c-1.1-0.6-1.1-1.7,0-2.4l12.7-7.5c1.1-0.7,2.8-0.7,3.9,0l13.1,7.7
		c1.1,0.7,1.1,1.7,0,2.4L19.8,31z M20,53.9l15.3-8.8c0.1-0.1,0.2-0.2,0.2-0.4v-19c0-0.4-0.4-0.6-0.7-0.4l-15.3,9.2
		c-0.1,0.1-0.2,0.2-0.2,0.4v18.6C19.3,53.9,19.7,54.1,20,53.9z M16.2,52.9V35.1c0-0.3-0.2-0.6-0.4-0.7L1.3,25.6
		C0.7,25.2,0,25.6,0,26.3v17.5c0,0.3,0.2,0.6,0.4,0.7l14.4,9.1C15.4,54,16.2,53.6,16.2,52.9z M58,12.8l-6.6,11.9v17.2
		c0,0.5,0.6,0.6,0.8,0.2l5.6-11.2c0.1-0.2,0.2-0.5,0.2-0.8V12.8z M50.5,21.6l6.2-11.3c0.4-0.7,0-1.5-0.8-1.7L36.2,4.1
		c-0.6-0.2-1.3,0.1-1.7,0.6l-7.8,9.6l5.2,3.9c0.2,0.1,0.4,0.2,0.6,0.3l16.9,3.7C49.8,22.2,50.3,22,50.5,21.6z M38.2,41.8l9.2,2
		c0.8,0.2,1.5-0.4,1.5-1.2v-17c0-0.6-0.4-1.1-1-1.2l-11.2-3c0,0,1.4,2.5,1.7,3.8C38.8,26.6,38.2,41.8,38.2,41.8z"/>
</g>
</svg>
