<?xml version="1.0" encoding="utf-8"?>
<!-- Generator: Adobe Illustrator 24.2.3, SVG Export Plug-In . SVG Version: 6.00 Build 0)  -->
<svg version="1.1" id="Layer_1" xmlns="http://www.w3.org/2000/svg" xmlns:xlink="http://www.w3.org/1999/xlink" x="0px" y="0px"
	 viewBox="0 0 58 58" style="enable-background:new 0 0 58 58;" xml:space="preserve">
<g fill="#a0a0a0">
	<path d="M54.9,25.7h-3.5C49.9,15.8,42.1,8,32.3,6.6V3.1C32.3,1.4,30.8,0,29,0s-3.3,1.4-3.3,3.1v3.5C15.9,8.1,8.1,15.9,6.6,25.7H3.1
		C1.4,25.7,0,27.2,0,29s1.4,3.3,3.1,3.3h3.5c1.4,9.9,9.2,17.7,19.1,19.1v3.5c0,1.7,1.5,3.1,3.3,3.1c1.8,0,3.3-1.4,3.3-3.1v-3.5
		c9.9-1.4,17.7-9.2,19.1-19.1h3.5c1.7,0,3.1-1.5,3.1-3.3C58,27.2,56.6,25.7,54.9,25.7z M32.3,45.3v-7.4l-3.3-5l-3.3,5v7.4
		c-6.5-1.3-11.7-6.5-13-13h7.4l5-3.3l-5-3.3h-7.4c1.3-6.5,6.5-11.7,13-13v7.4l3.3,5l3.3-5v-7.4c6.5,1.3,11.7,6.5,13,13h-7.4l-5,3.3
		l5,3.3h7.4C44,38.8,38.8,44,32.3,45.3z"/>
</g>
</svg>
