<?xml version="1.0" encoding="utf-8"?>
<!-- Generator: Adobe Illustrator 24.2.3, SVG Export Plug-In . SVG Version: 6.00 Build 0)  -->
<svg version="1.1" id="Layer_1" xmlns="http://www.w3.org/2000/svg" xmlns:xlink="http://www.w3.org/1999/xlink" x="0px" y="0px"
	 viewBox="0 0 58 58" style="enable-background:new 0 0 58 58;" xml:space="preserve">
	<g fill="#a0a0a0">
	<path d="M34.45,9.6c-2.88,2.04-5.55,1.82-7.69-1.11c-0.91,1.2-1.51,2.64-2.55,3.16c-1.05,0.52-2.55,0.11-3.8,0.11
		c0.84,1.09,1.45,2.57,3.56,2.47c1.52-0.07,2.31,1.28,2.75,2.7c0.58,1.91,1.22,3.8,1.72,5.74c0.12,0.45-0.08,1.18-0.4,1.52
		c-0.91,0.96-1.97,1.79-2.85,2.56c-2.35-0.85-4.55-1.86-6.86-2.44c-4.46-1.12-9.01,1.39-10.86,5.74c-1.78,4.19-0.37,9.34,3.3,11.87
		c2.76,1.9,5.88,1.89,9.03,1.56c2.41-0.26,2.41-0.31,3.09,2.01c0.01,0.05,0.03,0.09,0.05,0.14C23.9,49,23.9,49,20.54,49.93
		c-6.45,1.79-14.14-1.31-17.92-7.22c-3.85-6.03-3.46-13.8,1.16-19.18c1.62-1.88,2.9-3.78,3.39-6.29c0.44-2.26,1.83-3.19,4.1-3.13
		c1.06,0.03,1.63-0.15,2.05-1.34c0.31-0.9,1.34-1.6,2.16-2.24c0.45-0.35,1.14-0.4,1.68-0.57c0.18-0.99,0.22-1.96,0.53-2.84
		c0.8-2.32,2.99-3.43,5.24-2.47c2.05,0.87,3.49,0.58,4.99-1.15c2.11-2.43,5.49-1.79,6.82,1.24c0.6,1.37,1.34,1.93,2.78,1.67
		c0.59-0.11,1.24-0.07,1.84,0.02c3.08,0.45,4.55,2.85,3.6,5.84c-0.11,0.36-0.24,0.72-0.41,1.2c1.78,1.11,2.3,2.98,2.67,4.92
		c0.15,0.79,0.48,1.27,1.37,1.3c2.6,0.09,3.74,1.66,4.41,4.05c0.4,1.45,1.17,2.96,2.18,4.06c4.28,4.71,5.95,10.1,4.11,16.24
		c-1.88,6.28-6.3,10.15-12.59,11.54c-9.59,2.13-18.71-3.92-20.37-13.45c-0.83-4.79,0.28-9.18,3.57-12.91
		c1.83-2.07,3.5-4.21,3.81-7.19c0.07-0.69,1.26-1.35,2.04-1.86c0.49-0.31,1.17-0.37,1.77-0.43c1.07-0.12,1.54-0.64,1.65-1.74
		c0.09-1.02,0.43-2.01,0.63-2.88c-0.73-0.67-1.72-1.29-2.26-2.18C34.95,12,34.81,10.8,34.45,9.6z M51.2,39.25
		c-0.37-5.95-4.97-10.16-10.71-9.79c-5.64,0.36-10.02,4.88-9.75,10.09c0.3,5.78,5.2,10.35,10.71,9.97
		C47.08,49.14,51.52,44.46,51.2,39.25z"/>
</g>
</svg>
