<svg width="58" height="58" viewBox="0 0 58 58" fill="none" xmlns="http://www.w3.org/2000/svg">
<g clip-path="url(#clip0_140_2496)">
<path d="M4.01463 29.6152C3.82364 36.1538 4.89422 42.6683 7.16884 48.8087C10.8195 57.5658 14.2658 60.5765 14.0614 55.6552C13.8569 50.7338 17.0987 34.305 23.4948 32.626C31.205 30.5995 37.1922 28.5007 36.4767 25.6926C35.7611 22.8845 33.7459 22.5661 29.7886 22.87C25.8312 23.174 29.7886 12.2167 32.826 9.19146C35.8634 6.16626 35.878 4.3714 32.3295 6.38338C27.3729 9.16509 23.6438 13.6823 21.8739 19.0487C20.2968 23.6227 19.3768 25.8663 18.0187 23.9846C16.3102 21.5963 16.5584 11.3772 24.9842 4.87804C31.7015 -0.318366 28.5035 -2.06979 20.2676 3.17004C12.0316 8.40987 4.73017 17.746 4.01463 29.6152Z" fill="#a0a0a0"/>
<path d="M33.8481 20.6119C34.0526 20.6119 38.5065 21.0606 39.076 23.5068C39.4448 24.9104 39.3134 26.3971 38.7041 27.7157C38.0948 29.0344 37.045 30.1041 35.7319 30.7442C33.3809 31.989 33.5999 33.5667 34.9726 35.0866C36.3452 36.6064 39.8353 36.6209 42.3616 31.4679C44.8879 26.3149 43.2816 24.4477 45.9685 22.7831C49.4002 20.6987 55.066 20.1921 53.8248 16.9932C52.2915 12.9258 51.8972 10.7547 48.9621 12.9693C46.0269 15.1839 42.9311 19.0052 41.5584 18.4552C40.1858 17.9051 38.1122 15.2418 36.1846 15.5603C34.257 15.8787 30.2997 20.3369 33.8481 20.6119Z" fill="#a0a0a0"/>
</g>
<defs>
<clipPath id="clip0_140_2496">
<rect width="50" height="58" fill="white" transform="translate(4)"/>
</clipPath>
</defs>
</svg>
