<?xml version="1.0" encoding="utf-8"?>
<!-- Generator: Adobe Illustrator 24.2.3, SVG Export Plug-In . SVG Version: 6.00 Build 0)  -->
<svg version="1.1" id="Layer_1" xmlns="http://www.w3.org/2000/svg" xmlns:xlink="http://www.w3.org/1999/xlink" x="0px" y="0px"
	 viewBox="0 0 58 58" style="enable-background:new 0 0 58 58;" xml:space="preserve">
<g fill="#a0a0a0">
	<path d="M52.4,15c0.5-3.7-0.8-6.5-3.2-8.8c-2-1.8-4.3-2.8-7-2.5C39.4,4.1,37.7,6.3,38,9c0.8,5.5,3.7,9.5,8.8,11.6
		c2.5,1,5,1.8,7.4,2.8c1,0.4,2,1.1,3,1.6c0,0.2,0.1,0.4,0.1,0.5c-1,0.6-2,1.5-3.2,1.9c-2.3,0.7-4.7,1.1-7,1.7
		c-2.8,0.7-5.1-0.1-7.5-1.5c-4.3-2.5-7.6-6.1-10.1-10.3c-0.5-0.9-0.4-2.6,0.1-3.5c2.1-4.1,4.4-8,6.7-12c0.8-1.5,2.1-2.2,3.8-1.8
		C43.6,1,47,1.7,50.2,3c6,2.6,8.9,10.4,6.4,16.4c-0.5,1.2-1.4,1.9-2.7,1.6c-5.5-1.1-10-3.6-12.8-8.8c-0.9-1.6-0.8-3.3,0-4.8
		c0.3-0.6,1.5-1,2.3-0.9c2.9,0.2,5.1,1.8,6.6,4.2C50.8,12,51.5,13.4,52.4,15z M16.2,58c1.5,0.2,2.7-0.5,3.5-1.8
		c2.3-3.7,4.6-7.4,6.9-11c1-1.6,0.8-2.5-0.8-3.5c-4-2.5-6.9-5.8-8.9-10c-1-2.1-1.8-2.3-3.8-1c-3,2-5.8,4.2-9,5.9
		C1.2,38-0.1,43,0.8,45.9c0.4,1.1,1,2,2.2,2.3c1,0.2,1.5,1,1.6,2c0,0.4,0,0.9,0,1.3c0.2,2.2,1.3,2.8,3.1,1.6
		c1.2-0.8,2.2-1.8,3.4-2.8c0.4-0.3,0.8-0.6,1.2-0.8c0.1,0.1,0.2,0.2,0.4,0.3c-0.9,2.2-1.7,4.4-2.7,6.9C12.1,57.1,14.1,57.6,16.2,58z
		 M17.9,25c-0.1,0.9-0.5,2-0.1,2.7c2.3,5.2,5.4,9.7,10.4,12.7c1.9,1.2,3.2,1,4.9-0.7c1.8-1.7,3.5-3.4,5.4-5c2.7-2.4,2.7-3-0.3-5
		c-4.2-2.8-7.5-6.3-10.6-10.2c-1.4-1.8-3.1-1.9-4.6-0.1c-1.3,1.5-1.5,3.8-0.3,5.5c1.2,2,2.6,3.8,3.9,5.8c0.4,0.5,0.7,1.1,1.2,1.9
		c-3.4-1.2-5.5-3.2-7.3-5.8c-0.5-0.8-1.4-1.3-2.1-1.9C18.2,24.8,18,24.9,17.9,25z"/>
</g>
</svg>
