<?xml version="1.0" encoding="utf-8"?>
<!-- Generator: Adobe Illustrator 24.2.3, SVG Export Plug-In . SVG Version: 6.00 Build 0)  -->
<svg version="1.1" id="Layer_1" xmlns="http://www.w3.org/2000/svg" xmlns:xlink="http://www.w3.org/1999/xlink" x="0px" y="0px"
	 viewBox="0 0 58 58" style="enable-background:new 0 0 58 58;" xml:space="preserve">
<g fill="#a0a0a0">
	<path d="M27.6,13.9c-0.9-1.1-1.6-2-2.4-2.8c-2.3-2.2-3-5.2-1.5-8c1.3-2.3,3.2-3.4,5.9-3.1c2.5,0.3,4.1,1.7,5.1,4
		c1,2.3,0.6,4.4-1.1,6.3c-1,1.2-2,2.3-3.1,3.5c2.6,1,5,1.7,7.1,2.8c6.7,3.6,10.6,9,10.4,17c-0.2,5.8,0,11.6,0,17.4
		c0,3.1-0.3,3.5-3.2,4.5C33.9,59.4,23,58.3,12.2,55c-1.7-0.5-2.2-1.3-2.2-3.1c0-6.6-0.1-13.2,0-19.7c0.1-7.2,5.8-14.3,13.4-16.8
		C24.7,14.9,25.9,14.5,27.6,13.9z M21.5,28.6c-2.5,0-4.4,1.9-4.4,4.4c0,2.5,2,4.6,4.4,4.6c2.4,0,4.4-2,4.4-4.4
		C25.9,30.7,23.9,28.7,21.5,28.6z M37,28.6c-2.4,0-4.3,1.9-4.3,4.4c0,2.4,2,4.5,4.3,4.5c2.3,0,4.5-2.2,4.5-4.6
		C41.5,30.7,39.4,28.6,37,28.6z M36.3,43.6c-4.8,0-9.6,0-14.4,0c0,0.9,0,1.7,0,2.6c4.8,0,9.6,0,14.4,0
		C36.3,45.3,36.3,44.5,36.3,43.6z"/>
</g>
</svg>
