<?xml version="1.0" encoding="utf-8"?>
<!-- Generator: Adobe Illustrator 24.2.3, SVG Export Plug-In . SVG Version: 6.00 Build 0)  -->
<svg version="1.1" id="Layer_1" xmlns="http://www.w3.org/2000/svg" xmlns:xlink="http://www.w3.org/1999/xlink" x="0px" y="0px"
	 viewBox="0 0 58 58" style="enable-background:new 0 0 58 58;" xml:space="preserve">
<g fill="#a0a0a0">
	<path d="M40.2,24.63c-2.95-0.3-6.45-3.35-6.32-6.62c0.07-1.62-0.85-2.34-2.46-2.37c-1.56-0.03-3.13-0.03-4.69,0
		c-1.7,0.04-2.55,0.71-2.53,2.44c0.03,3.3-3.35,6.23-6.25,6.54c-1.55,0.17-2.61,1.04-2.79,2.46c-0.22,1.78-0.4,3.73,0.11,5.39
		c0.68,2.23,1.95,4.3,3.11,6.35c1.36,2.39,2.88,4.69,4.49,7.27c3.78,0,7.98,0.02,12.17-0.03c0.3,0,0.7-0.41,0.88-0.73
		c0.87-1.55,1.65-3.15,2.54-4.69c1.14-1.97,2.42-3.86,3.51-5.86c1.31-2.39,1.79-4.96,1.02-7.65C42.58,25.73,41.76,24.79,40.2,24.63z
		 M25.91,38.84c-1.22,0.04-2.27-1.02-2.3-2.3c-0.03-1.28,0.99-2.36,2.22-2.38c1.19-0.02,2.32,1.1,2.34,2.3
		C28.19,37.7,27.14,38.8,25.91,38.84z M33.07,34.41c-1.91-0.02-3.47-1.6-3.47-3.53c0-1.96,1.67-3.6,3.6-3.54
		c1.91,0.06,3.4,1.65,3.37,3.61C36.55,32.9,35,34.43,33.07,34.41z M15.3,22.38c-1.46-0.32-3.03-0.74-4.46-0.52
		c-5.23,0.8-7.96,5.8-6.34,11.25c0.6,2.04,1.76,3.69,3.32,5.11c0.69,0.63,1.22,1.44,1.82,2.17c-0.11,0.13-0.22,0.27-0.32,0.4
		c-1.59,0.16-2.92-0.54-4.13-1.46c-4.89-3.71-8.05-13.24-1.36-20.26c1.67-1.75,3.72-3.22,5.81-4.46c1.51-0.89,2.06-1.93,2.02-3.56
		c-0.1-3.73,1.66-6.56,4.57-8.64c1.04-0.74,2.42-1.04,3.69-1.39c0.41-0.12,0.96,0.24,1.44,0.37c-0.31,0.39-0.54,0.9-0.94,1.15
		C18,4.07,16.61,6.28,16.04,9.03c-0.54,2.59,0.38,3.88,2.98,4.29c1.59,0.25,2.76,1.34,3.14,2.91C23.05,20,19.36,23.27,15.3,22.38z
		 M53.39,38.97c-1.5,1.29-3.2,1.94-5.14,1.67c0.97-1.13,1.67-2.06,2.49-2.88c2.75-2.75,3.76-6.01,3-9.81
		c-0.87-4.38-5.21-7.09-9.52-5.98c-0.82,0.21-1.64,0.47-2.48,0.53c-3.12,0.25-5.53-1.78-5.91-4.91c-0.25-2.09,1.24-4,3.35-4.28
		c2.38-0.32,3.35-1.58,2.93-3.95c-0.5-2.8-1.82-5.12-4.27-6.7c-0.46-0.29-0.85-0.68-1.27-1.03c0.04-0.17,0.08-0.34,0.13-0.51
		c0.83,0,1.68-0.14,2.47,0.02c3.54,0.73,7.09,5.13,7.28,8.91c0.03,0.63,0.03,1.25,0.05,1.88c0.05,1.12,0.54,1.88,1.59,2.41
		c3.75,1.91,6.88,4.49,8.73,8.39C59.29,27.97,57.77,35.2,53.39,38.97z M23.51,8.64c0.84-1.97,2.79-3.12,5.51-3.09
		c2.62,0.03,4.59,1.23,5.31,3.01c-0.85,1.31-1.56,2.46-2.35,3.56c-0.21,0.3-0.62,0.56-0.97,0.63c-0.56,0.1-1.16-0.02-1.74,0.04
		c-1.84,0.17-3.45,0.11-4.11-2.16C24.95,9.9,24.11,9.34,23.51,8.64z M33.9,50.45c-1.24,1.92-2.49,3.93-3.8,5.9
		c-0.59,0.89-1.57,0.87-2.16-0.03c-1.28-1.94-2.51-3.91-3.76-5.88c0.81-1.54,1.91-2.21,3.55-1.99c0.88,0.12,1.8,0.12,2.67,0
		C32.07,48.2,33.12,48.95,33.9,50.45z"/>
</g>
</svg>
