<svg width="58" height="58" viewBox="0 0 58 58" fill="none" xmlns="http://www.w3.org/2000/svg">
<g clip-path="url(#clip0_140_2492)">
<path d="M0 41.9782L2.6611 38.5183C2.78965 38.3475 2.85861 38.1407 2.85777 37.9284V35.5576C2.86017 35.3387 2.9376 35.1269 3.0776 34.9564L9.70718 26.8115C9.77505 26.7313 9.82616 26.6388 9.85759 26.5393L11.0146 23.3857C11.0345 23.3296 11.0617 23.2762 11.0956 23.2268C11.2551 22.9436 11.4789 22.7001 11.7498 22.5152C12.0206 22.3303 12.3312 22.2089 12.6575 22.1605L14.2541 21.8769C14.4704 21.8425 14.6672 21.734 14.8095 21.5707L24.9563 10.4084C25.0608 10.293 25.1916 10.2036 25.3381 10.1474C25.5989 10.0365 25.8827 9.9879 26.1664 10.0056C26.45 10.0234 26.7253 10.107 26.9695 10.2495C27.7216 10.8281 27.7215 12.6544 27.7215 12.6544C27.7215 12.6544 27.7215 13.7888 27.3744 13.5733C27.1826 13.4761 26.9856 13.389 26.7844 13.3124C26.5995 13.2357 26.395 13.2163 26.1985 13.2568C26.002 13.2974 25.8229 13.396 25.6852 13.5393L24.1696 15.116L17.4012 22.8185C17.3531 22.8769 17.2988 22.9301 17.2392 22.9773L16.6607 23.3857C16.5026 23.4929 16.3814 23.6447 16.3132 23.8209C16.245 23.9971 16.233 24.1895 16.2789 24.3726C16.3714 24.6675 16.626 24.8604 17.3317 24.3726L25.3034 15.2975C25.4547 15.1292 25.6578 15.0137 25.8819 14.9686H26.2406C26.3697 14.97 26.4973 14.9964 26.6161 15.0463C26.7348 15.0961 26.8424 15.1684 26.9326 15.259C27.0229 15.3496 27.094 15.4567 27.1421 15.5743C27.1901 15.6918 27.214 15.8175 27.2125 15.9441C27.2623 17.112 27.0407 18.2757 26.5646 19.3473L18.026 30.3281L17.9218 30.4982C17.7308 30.8654 17.6255 31.2697 17.6135 31.6817C17.6015 32.0937 17.6831 32.5032 17.8524 32.8804C17.8892 32.944 17.9361 33.0014 17.9912 33.0506L18.9862 34.0715C19.0756 34.1642 19.1831 34.2382 19.3025 34.2889C19.4218 34.3396 19.5504 34.366 19.6804 34.3665C20.4865 34.3899 21.2912 34.2865 22.0638 34.0602C22.0638 34.0602 25.7431 32.9258 27.0273 33.8333C27.3475 34.0501 27.5721 34.3777 27.6558 34.7502C27.7395 35.1228 27.6762 35.5126 27.4786 35.8412C27.3918 36.0192 27.2501 36.1661 27.0736 36.2609L24.7597 37.5314H24.6671L22.7002 38.3368L22.5151 38.3935C20.9988 38.6278 19.5327 39.107 18.1764 39.8115L18.0491 39.9023C16.8162 40.623 15.5044 41.2052 14.1384 41.6379C12.5493 41.8297 10.9496 41.9244 9.34851 41.9215H8.87414C8.61969 41.9298 8.37875 42.0357 8.2031 42.2164L8.1221 42.2958L8.86256 42.8743C8.94713 42.9397 9.04062 42.9931 9.14026 43.0332C9.45265 43.1353 10.17 43.4642 9.93859 44.1675L7.91385 48.342C7.84618 48.4833 7.74451 48.6064 7.61762 48.7007C7.49072 48.795 7.34238 48.8576 7.18533 48.8833C7.02829 48.9089 6.86727 48.8968 6.71605 48.848C6.56483 48.7992 6.42796 48.7151 6.3172 48.603L0.0115812 42.1597" fill="#a0a0a0"/>
<path d="M57.9884 41.9782L55.3273 38.5183C55.1987 38.3475 55.1298 38.1407 55.1306 37.9284V35.5576C55.1282 35.3387 55.0508 35.1269 54.9108 34.9564L48.2812 26.8115C48.2133 26.7313 48.1622 26.6388 48.1308 26.5393L46.9738 23.3857C46.9539 23.3296 46.9267 23.2762 46.8928 23.2268C46.7347 22.9425 46.5113 22.6981 46.2402 22.513C45.9691 22.328 45.6578 22.2073 45.3309 22.1605L43.7342 21.8769C43.519 21.8398 43.323 21.7318 43.1789 21.5707L33.0321 10.4084C32.9276 10.293 32.7968 10.2036 32.6502 10.1474C32.3895 10.0365 32.1056 9.9879 31.822 10.0056C31.5384 10.0234 31.2631 10.107 31.0189 10.2495C30.2669 10.8281 30.2668 12.6544 30.2668 12.6544C30.2668 12.6544 30.2669 13.7888 30.614 13.5733C30.8058 13.4761 31.0027 13.389 31.204 13.3124C31.3889 13.2357 31.5934 13.2163 31.7899 13.2568C31.9864 13.2974 32.1655 13.396 32.3032 13.5393L33.8188 15.116L40.5872 22.8185C40.6353 22.8769 40.6896 22.9301 40.7492 22.9773L41.3277 23.3857C41.4858 23.4929 41.607 23.6447 41.6752 23.8209C41.7434 23.9971 41.7554 24.1895 41.7095 24.3726C41.617 24.6675 41.3624 24.8604 40.6566 24.3726L32.685 15.2975C32.5337 15.1292 32.3306 15.0137 32.1065 14.9686H31.7478C31.6186 14.97 31.4911 14.9964 31.3723 15.0463C31.2536 15.0961 31.146 15.1684 31.0558 15.259C30.9655 15.3496 30.8943 15.4567 30.8463 15.5743C30.7983 15.6918 30.7744 15.8175 30.7759 15.9441C30.7244 17.1133 30.9501 18.2782 31.4354 19.3473L39.9624 30.3281L40.0666 30.4982C40.2576 30.8654 40.3629 31.2697 40.3749 31.6817C40.3869 32.0937 40.3053 32.5032 40.136 32.8804C40.0992 32.944 40.0523 33.0014 39.9972 33.0506L39.0022 34.0715C38.9128 34.1642 38.8053 34.2382 38.6859 34.2889C38.5666 34.3396 38.438 34.366 38.308 34.3665C37.5019 34.3899 36.6972 34.2865 35.9246 34.0602C35.9246 34.0602 32.2453 32.9258 30.961 33.8333C30.6409 34.0501 30.4163 34.3777 30.3326 34.7502C30.2489 35.1228 30.3122 35.5126 30.5098 35.8412C30.5966 36.0192 30.7382 36.1661 30.9148 36.2609L33.2287 37.5314H33.3213L35.2882 38.3368L35.4733 38.3935C36.9896 38.6278 38.4557 39.107 39.812 39.8115L39.9393 39.9023C41.1722 40.623 42.484 41.2052 43.85 41.6379C45.4391 41.8297 47.0388 41.9244 48.6399 41.9215H49.1143C49.3687 41.9298 49.6096 42.0357 49.7853 42.2164L49.8663 42.2958L49.1258 42.8743C49.0413 42.9397 48.9478 42.9931 48.8481 43.0332C48.5357 43.1353 47.8184 43.4642 48.0498 44.1675L50.0745 48.342C50.1422 48.4833 50.2439 48.6064 50.3708 48.7007C50.4977 48.795 50.646 48.8576 50.8031 48.8833C50.9601 48.9089 51.1211 48.8968 51.2723 48.848C51.4236 48.7992 51.5604 48.7151 51.6712 48.603L57.9768 42.1597" fill="#a0a0a0"/>
</g>
<defs>
<clipPath id="clip0_140_2492">
<rect width="58" height="39" fill="white" transform="translate(0 10)"/>
</clipPath>
</defs>
</svg>
